<svg width="1854" height="889" viewBox="0 0 1854 889" fill="none" xmlns="http://www.w3.org/2000/svg">
<g clip-path="url(#clip0_38_483)">
<rect width="1854" height="889" fill="#100C23"/>
<path d="M1635.86 3.35671C1639.22 3.35671 1639.22 3.35671 1642.59 3.35671V-10.0707C1639.22 -10.0707 1639.22 -10.0707 1635.86 -10.0707C1464.09 -10.0707 1322.63 -151.059 1322.63 -322.259C1322.63 -325.616 1322.63 -325.616 1322.63 -328.973H1309.16C1309.16 -325.616 1309.16 -325.616 1309.16 -322.259C1309.16 -151.059 1167.7 -10.0707 995.936 -10.0707C992.568 -10.0707 992.568 -10.0707 989.2 -10.0707V3.35671C992.568 3.35671 992.568 3.35671 995.936 3.35671C1167.7 3.35671 1309.16 144.345 1309.16 315.545C1309.16 318.902 1309.16 318.902 1309.16 322.259H1322.63C1322.63 318.902 1322.63 318.902 1322.63 315.545C1322.63 140.988 1464.09 3.35671 1635.86 3.35671Z" fill="url(#paint0_radial_38_483)"/>
<path d="M1049.82 708.297C1049.82 704.941 1049.82 704.941 1049.82 708.297C1019.51 704.941 992.568 681.443 992.568 647.874H989.2C989.2 678.086 962.256 704.941 931.944 704.941V708.297C962.256 708.297 989.2 735.152 989.2 765.364H992.568C992.568 731.796 1016.14 708.297 1049.82 708.297Z" fill="url(#paint1_radial_38_483)"/>
<path d="M756.808 543.812C736.6 540.455 719.76 527.027 719.76 503.529H716.392C716.392 523.67 699.552 540.455 679.344 540.455V543.812C699.552 543.812 716.392 560.596 716.392 580.737H719.76C719.76 560.596 736.6 543.812 756.808 543.812Z" fill="url(#paint2_radial_38_483)"/>
<path d="M2093.9 436.392H2097.27V426.321H2093.9C1962.55 426.321 1854.78 318.901 1854.78 187.984V184.627H1844.67V187.984C1844.67 318.901 1736.9 426.321 1605.54 426.321H1602.18V436.392H1605.54C1736.9 436.392 1844.67 543.811 1844.67 674.729V678.086H1854.78V674.729C1854.78 543.811 1962.55 436.392 2093.9 436.392Z" fill="url(#paint3_radial_38_483)"/>
<path d="M1363.05 614.305C1363.05 614.305 1366.42 614.305 1363.05 614.305L1366.42 607.591H1363.05C1265.38 607.591 1187.91 530.384 1187.91 433.035V429.678H1181.18V433.035C1181.18 530.384 1103.71 607.591 1006.04 607.591H1002.67V614.305H1006.04C1103.71 614.305 1181.18 691.513 1181.18 788.862V792.219H1187.91V788.862C1187.91 691.513 1268.74 614.305 1363.05 614.305Z" fill="url(#paint4_radial_38_483)"/>
<path d="M1376.52 795.576C1359.68 795.576 1346.21 782.149 1346.21 765.364C1346.21 782.149 1332.74 795.576 1315.9 795.576C1332.74 795.576 1346.21 809.004 1346.21 825.788C1346.21 809.004 1359.68 795.576 1376.52 795.576Z" fill="url(#paint5_radial_38_483)"/>
<path d="M1686.38 758.651C1686.38 755.294 1686.38 755.294 1686.38 758.651C1669.54 758.651 1656.06 745.224 1656.06 728.439C1656.06 745.224 1642.59 758.651 1625.75 758.651C1642.59 758.651 1656.06 772.079 1656.06 788.863C1656.06 772.079 1669.54 758.651 1686.38 758.651Z" fill="url(#paint6_radial_38_483)"/>
<path d="M1059.93 241.694L1063.3 231.623H1059.93C955.52 231.623 871.32 147.702 871.32 43.639V40.2822H861.216V43.639C861.216 147.702 777.016 231.623 672.608 231.623H669.24V241.694H672.608C777.016 241.694 861.216 325.615 861.216 429.678V433.035H871.32V429.678C871.32 325.615 955.52 241.694 1059.93 241.694Z" fill="url(#paint7_radial_38_483)"/>
<path d="M1029.62 456.533C1055.66 456.533 1076.77 435.492 1076.77 409.537C1076.77 383.582 1055.66 362.541 1029.62 362.541C1003.57 362.541 982.464 383.582 982.464 409.537C982.464 435.492 1003.57 456.533 1029.62 456.533Z" fill="url(#paint8_radial_38_483)"/>
<path d="M1191.28 362.54C1224.76 362.54 1251.9 335.488 1251.9 302.117C1251.9 268.746 1224.76 241.693 1191.28 241.693C1157.8 241.693 1130.66 268.746 1130.66 302.117C1130.66 335.488 1157.8 362.54 1191.28 362.54Z" fill="url(#paint9_radial_38_483)"/>
<path d="M1598.81 322.258C1647.17 322.258 1686.38 283.182 1686.38 234.98C1686.38 186.777 1647.17 147.701 1598.81 147.701C1550.45 147.701 1511.24 186.777 1511.24 234.98C1511.24 283.182 1550.45 322.258 1598.81 322.258Z" fill="url(#paint10_radial_38_483)"/>
<path d="M1474.19 516.957C1479.77 516.957 1484.3 512.448 1484.3 506.886C1484.3 501.324 1479.77 496.815 1474.19 496.815C1468.61 496.815 1464.09 501.324 1464.09 506.886C1464.09 512.448 1468.61 516.957 1474.19 516.957Z" fill="url(#paint11_radial_38_483)"/>
<path d="M1440.51 728.438C1455.39 728.438 1467.46 716.415 1467.46 701.583C1467.46 686.752 1455.39 674.729 1440.51 674.729C1425.63 674.729 1413.57 686.752 1413.57 701.583C1413.57 716.415 1425.63 728.438 1440.51 728.438Z" fill="url(#paint12_radial_38_483)"/>
<path d="M1427.04 443.106C1449.36 443.106 1467.46 425.071 1467.46 402.823C1467.46 380.576 1449.36 362.541 1427.04 362.541C1404.72 362.541 1386.62 380.576 1386.62 402.823C1386.62 425.071 1404.72 443.106 1427.04 443.106Z" fill="url(#paint13_radial_38_483)"/>
<path d="M541.256 181.27C556.137 181.27 568.2 169.247 568.2 154.415C568.2 139.584 556.137 127.561 541.256 127.561C526.375 127.561 514.312 139.584 514.312 154.415C514.312 169.247 526.375 181.27 541.256 181.27Z" fill="url(#paint14_radial_38_483)"/>
<path d="M878.056 570.666C898.517 570.666 915.104 554.134 915.104 533.741C915.104 513.348 898.517 496.815 878.056 496.815C857.595 496.815 841.008 513.348 841.008 533.741C841.008 554.134 857.595 570.666 878.056 570.666Z" fill="url(#paint15_radial_38_483)"/>
<path d="M601.88 23.4976C620.481 23.4976 635.56 8.46843 635.56 -10.071C635.56 -28.6105 620.481 -43.6396 601.88 -43.6396C583.279 -43.6396 568.2 -28.6105 568.2 -10.071C568.2 8.46843 583.279 23.4976 601.88 23.4976Z" fill="url(#paint16_radial_38_483)"/>
<path d="M756.808 90.635L719.76 130.917L679.344 90.635L719.76 53.7095L756.808 90.635Z" fill="url(#paint17_radial_38_483)"/>
<path d="M591.776 328.972L564.832 359.184L534.52 328.972L564.832 302.117L591.776 328.972Z" fill="url(#paint18_radial_38_483)"/>
<path d="M1103.71 130.918L1053.19 181.27L1002.67 130.918L1053.19 83.9214L1103.71 130.918Z" fill="url(#paint19_radial_38_483)"/>
<path d="M1821.1 80.5644L1767.21 134.274L1713.32 80.5644L1767.21 26.8545L1821.1 80.5644Z" fill="url(#paint20_radial_38_483)"/>
<path d="M760.176 379.325L706.288 433.035L652.4 379.325L706.288 325.615L760.176 379.325Z" fill="url(#paint21_radial_38_483)"/>
<path d="M851.112 634.447L817.432 671.372L780.384 634.447L817.432 600.878L851.112 634.447Z" fill="url(#paint22_radial_38_483)"/>
<path d="M1319.26 429.678L1282.22 469.961L1241.8 429.678L1282.22 392.753L1319.26 429.678Z" fill="url(#paint23_radial_38_483)"/>
<path d="M1619.02 631.09L1558.39 688.157L1501.14 631.09L1558.39 574.023L1619.02 631.09Z" fill="url(#paint24_radial_38_483)"/>
<path d="M1561.76 788.863L1528.08 822.431L1497.77 788.863L1528.08 755.294L1561.76 788.863Z" fill="url(#paint25_radial_38_483)"/>
<path d="M1753.74 651.232L1713.32 688.157L1676.27 651.232L1713.32 610.949L1753.74 651.232Z" fill="url(#paint26_radial_38_483)"/>
</g>
<defs>
<radialGradient id="paint0_radial_38_483" cx="0" cy="0" r="1" gradientUnits="userSpaceOnUse" gradientTransform="translate(1299.69 25.6026) scale(1049.8 1046.33)">
<stop stop-color="#D3CEE8"/>
<stop offset="0.3641" stop-color="#F3A3C0"/>
<stop offset="0.5422" stop-color="#CF86B6"/>
<stop offset="0.6455" stop-color="#BD79B1"/>
<stop offset="1" stop-color="#5464AC"/>
</radialGradient>
<radialGradient id="paint1_radial_38_483" cx="0" cy="0" r="1" gradientUnits="userSpaceOnUse" gradientTransform="translate(1299.69 25.6028) scale(1049.8 1046.33)">
<stop stop-color="#D3CEE8"/>
<stop offset="0.3641" stop-color="#F3A3C0"/>
<stop offset="0.5422" stop-color="#CF86B6"/>
<stop offset="0.6455" stop-color="#BD79B1"/>
<stop offset="1" stop-color="#5464AC"/>
</radialGradient>
<radialGradient id="paint2_radial_38_483" cx="0" cy="0" r="1" gradientUnits="userSpaceOnUse" gradientTransform="translate(1299.69 25.6032) scale(1049.8 1046.33)">
<stop stop-color="#D3CEE8"/>
<stop offset="0.3641" stop-color="#F3A3C0"/>
<stop offset="0.5422" stop-color="#CF86B6"/>
<stop offset="0.6455" stop-color="#BD79B1"/>
<stop offset="1" stop-color="#5464AC"/>
</radialGradient>
<radialGradient id="paint3_radial_38_483" cx="0" cy="0" r="1" gradientUnits="userSpaceOnUse" gradientTransform="translate(1299.69 25.6023) scale(1049.8 1046.33)">
<stop stop-color="#D3CEE8"/>
<stop offset="0.3641" stop-color="#F3A3C0"/>
<stop offset="0.5422" stop-color="#CF86B6"/>
<stop offset="0.6455" stop-color="#BD79B1"/>
<stop offset="1" stop-color="#5464AC"/>
</radialGradient>
<radialGradient id="paint4_radial_38_483" cx="0" cy="0" r="1" gradientUnits="userSpaceOnUse" gradientTransform="translate(1299.69 25.6021) scale(1049.8 1046.33)">
<stop stop-color="#D3CEE8"/>
<stop offset="0.3641" stop-color="#F3A3C0"/>
<stop offset="0.5422" stop-color="#CF86B6"/>
<stop offset="0.6455" stop-color="#BD79B1"/>
<stop offset="1" stop-color="#5464AC"/>
</radialGradient>
<radialGradient id="paint5_radial_38_483" cx="0" cy="0" r="1" gradientUnits="userSpaceOnUse" gradientTransform="translate(1299.69 25.6017) scale(1049.8 1046.33)">
<stop stop-color="#D3CEE8"/>
<stop offset="0.3641" stop-color="#F3A3C0"/>
<stop offset="0.5422" stop-color="#CF86B6"/>
<stop offset="0.6455" stop-color="#BD79B1"/>
<stop offset="1" stop-color="#5464AC"/>
</radialGradient>
<radialGradient id="paint6_radial_38_483" cx="0" cy="0" r="1" gradientUnits="userSpaceOnUse" gradientTransform="translate(1299.69 25.6024) scale(1049.8 1046.33)">
<stop stop-color="#D3CEE8"/>
<stop offset="0.3641" stop-color="#F3A3C0"/>
<stop offset="0.5422" stop-color="#CF86B6"/>
<stop offset="0.6455" stop-color="#BD79B1"/>
<stop offset="1" stop-color="#5464AC"/>
</radialGradient>
<radialGradient id="paint7_radial_38_483" cx="0" cy="0" r="1" gradientUnits="userSpaceOnUse" gradientTransform="translate(1299.69 25.6027) scale(1049.8 1046.33)">
<stop stop-color="#D3CEE8"/>
<stop offset="0.3641" stop-color="#F3A3C0"/>
<stop offset="0.5422" stop-color="#CF86B6"/>
<stop offset="0.6455" stop-color="#BD79B1"/>
<stop offset="1" stop-color="#5464AC"/>
</radialGradient>
<radialGradient id="paint8_radial_38_483" cx="0" cy="0" r="1" gradientUnits="userSpaceOnUse" gradientTransform="translate(1299.69 25.6025) scale(1049.8 1046.33)">
<stop stop-color="#D3CEE8"/>
<stop offset="0.3641" stop-color="#F3A3C0"/>
<stop offset="0.5422" stop-color="#CF86B6"/>
<stop offset="0.6455" stop-color="#BD79B1"/>
<stop offset="1" stop-color="#5464AC"/>
</radialGradient>
<radialGradient id="paint9_radial_38_483" cx="0" cy="0" r="1" gradientUnits="userSpaceOnUse" gradientTransform="translate(1299.69 25.6021) scale(1049.8 1046.33)">
<stop stop-color="#D3CEE8"/>
<stop offset="0.3641" stop-color="#F3A3C0"/>
<stop offset="0.5422" stop-color="#CF86B6"/>
<stop offset="0.6455" stop-color="#BD79B1"/>
<stop offset="1" stop-color="#5464AC"/>
</radialGradient>
<radialGradient id="paint10_radial_38_483" cx="0" cy="0" r="1" gradientUnits="userSpaceOnUse" gradientTransform="translate(1299.69 25.6021) scale(1049.8 1046.33)">
<stop stop-color="#D3CEE8"/>
<stop offset="0.3641" stop-color="#F3A3C0"/>
<stop offset="0.5422" stop-color="#CF86B6"/>
<stop offset="0.6455" stop-color="#BD79B1"/>
<stop offset="1" stop-color="#5464AC"/>
</radialGradient>
<radialGradient id="paint11_radial_38_483" cx="0" cy="0" r="1" gradientUnits="userSpaceOnUse" gradientTransform="translate(1299.69 25.6012) scale(1049.81 1046.33)">
<stop stop-color="#D3CEE8"/>
<stop offset="0.3641" stop-color="#F3A3C0"/>
<stop offset="0.5422" stop-color="#CF86B6"/>
<stop offset="0.6455" stop-color="#BD79B1"/>
<stop offset="1" stop-color="#5464AC"/>
</radialGradient>
<radialGradient id="paint12_radial_38_483" cx="0" cy="0" r="1" gradientUnits="userSpaceOnUse" gradientTransform="translate(1299.69 25.6015) scale(1049.8 1046.33)">
<stop stop-color="#D3CEE8"/>
<stop offset="0.3641" stop-color="#F3A3C0"/>
<stop offset="0.5422" stop-color="#CF86B6"/>
<stop offset="0.6455" stop-color="#BD79B1"/>
<stop offset="1" stop-color="#5464AC"/>
</radialGradient>
<radialGradient id="paint13_radial_38_483" cx="0" cy="0" r="1" gradientUnits="userSpaceOnUse" gradientTransform="translate(1299.69 25.6027) scale(1049.8 1046.33)">
<stop stop-color="#D3CEE8"/>
<stop offset="0.3641" stop-color="#F3A3C0"/>
<stop offset="0.5422" stop-color="#CF86B6"/>
<stop offset="0.6455" stop-color="#BD79B1"/>
<stop offset="1" stop-color="#5464AC"/>
</radialGradient>
<radialGradient id="paint14_radial_38_483" cx="0" cy="0" r="1" gradientUnits="userSpaceOnUse" gradientTransform="translate(1299.69 25.6024) scale(1049.8 1046.33)">
<stop stop-color="#D3CEE8"/>
<stop offset="0.3641" stop-color="#F3A3C0"/>
<stop offset="0.5422" stop-color="#CF86B6"/>
<stop offset="0.6455" stop-color="#BD79B1"/>
<stop offset="1" stop-color="#5464AC"/>
</radialGradient>
<radialGradient id="paint15_radial_38_483" cx="0" cy="0" r="1" gradientUnits="userSpaceOnUse" gradientTransform="translate(1299.69 25.6028) scale(1049.8 1046.33)">
<stop stop-color="#D3CEE8"/>
<stop offset="0.3641" stop-color="#F3A3C0"/>
<stop offset="0.5422" stop-color="#CF86B6"/>
<stop offset="0.6455" stop-color="#BD79B1"/>
<stop offset="1" stop-color="#5464AC"/>
</radialGradient>
<radialGradient id="paint16_radial_38_483" cx="0" cy="0" r="1" gradientUnits="userSpaceOnUse" gradientTransform="translate(1299.69 25.6023) scale(1049.8 1046.33)">
<stop stop-color="#D3CEE8"/>
<stop offset="0.3641" stop-color="#F3A3C0"/>
<stop offset="0.5422" stop-color="#CF86B6"/>
<stop offset="0.6455" stop-color="#BD79B1"/>
<stop offset="1" stop-color="#5464AC"/>
</radialGradient>
<radialGradient id="paint17_radial_38_483" cx="0" cy="0" r="1" gradientUnits="userSpaceOnUse" gradientTransform="translate(1299.69 25.6024) scale(1049.8 1046.33)">
<stop stop-color="#D3CEE8"/>
<stop offset="0.3641" stop-color="#F3A3C0"/>
<stop offset="0.5422" stop-color="#CF86B6"/>
<stop offset="0.6455" stop-color="#BD79B1"/>
<stop offset="1" stop-color="#5464AC"/>
</radialGradient>
<radialGradient id="paint18_radial_38_483" cx="0" cy="0" r="1" gradientUnits="userSpaceOnUse" gradientTransform="translate(1299.69 25.6024) scale(1049.8 1046.33)">
<stop stop-color="#D3CEE8"/>
<stop offset="0.3641" stop-color="#F3A3C0"/>
<stop offset="0.5422" stop-color="#CF86B6"/>
<stop offset="0.6455" stop-color="#BD79B1"/>
<stop offset="1" stop-color="#5464AC"/>
</radialGradient>
<radialGradient id="paint19_radial_38_483" cx="0" cy="0" r="1" gradientUnits="userSpaceOnUse" gradientTransform="translate(1299.69 25.6026) scale(1049.8 1046.33)">
<stop stop-color="#D3CEE8"/>
<stop offset="0.3641" stop-color="#F3A3C0"/>
<stop offset="0.5422" stop-color="#CF86B6"/>
<stop offset="0.6455" stop-color="#BD79B1"/>
<stop offset="1" stop-color="#5464AC"/>
</radialGradient>
<radialGradient id="paint20_radial_38_483" cx="0" cy="0" r="1" gradientUnits="userSpaceOnUse" gradientTransform="translate(1299.69 25.6024) scale(1049.8 1046.33)">
<stop stop-color="#D3CEE8"/>
<stop offset="0.3641" stop-color="#F3A3C0"/>
<stop offset="0.5422" stop-color="#CF86B6"/>
<stop offset="0.6455" stop-color="#BD79B1"/>
<stop offset="1" stop-color="#5464AC"/>
</radialGradient>
<radialGradient id="paint21_radial_38_483" cx="0" cy="0" r="1" gradientUnits="userSpaceOnUse" gradientTransform="translate(1299.69 25.6025) scale(1049.8 1046.33)">
<stop stop-color="#D3CEE8"/>
<stop offset="0.3641" stop-color="#F3A3C0"/>
<stop offset="0.5422" stop-color="#CF86B6"/>
<stop offset="0.6455" stop-color="#BD79B1"/>
<stop offset="1" stop-color="#5464AC"/>
</radialGradient>
<radialGradient id="paint22_radial_38_483" cx="0" cy="0" r="1" gradientUnits="userSpaceOnUse" gradientTransform="translate(1299.69 25.602) scale(1049.8 1046.33)">
<stop stop-color="#D3CEE8"/>
<stop offset="0.3641" stop-color="#F3A3C0"/>
<stop offset="0.5422" stop-color="#CF86B6"/>
<stop offset="0.6455" stop-color="#BD79B1"/>
<stop offset="1" stop-color="#5464AC"/>
</radialGradient>
<radialGradient id="paint23_radial_38_483" cx="0" cy="0" r="1" gradientUnits="userSpaceOnUse" gradientTransform="translate(1299.69 25.6026) scale(1049.8 1046.33)">
<stop stop-color="#D3CEE8"/>
<stop offset="0.3641" stop-color="#F3A3C0"/>
<stop offset="0.5422" stop-color="#CF86B6"/>
<stop offset="0.6455" stop-color="#BD79B1"/>
<stop offset="1" stop-color="#5464AC"/>
</radialGradient>
<radialGradient id="paint24_radial_38_483" cx="0" cy="0" r="1" gradientUnits="userSpaceOnUse" gradientTransform="translate(1299.69 25.6023) scale(1049.8 1046.33)">
<stop stop-color="#D3CEE8"/>
<stop offset="0.3641" stop-color="#F3A3C0"/>
<stop offset="0.5422" stop-color="#CF86B6"/>
<stop offset="0.6455" stop-color="#BD79B1"/>
<stop offset="1" stop-color="#5464AC"/>
</radialGradient>
<radialGradient id="paint25_radial_38_483" cx="0" cy="0" r="1" gradientUnits="userSpaceOnUse" gradientTransform="translate(1299.69 25.6018) scale(1049.8 1046.33)">
<stop stop-color="#D3CEE8"/>
<stop offset="0.3641" stop-color="#F3A3C0"/>
<stop offset="0.5422" stop-color="#CF86B6"/>
<stop offset="0.6455" stop-color="#BD79B1"/>
<stop offset="1" stop-color="#5464AC"/>
</radialGradient>
<radialGradient id="paint26_radial_38_483" cx="0" cy="0" r="1" gradientUnits="userSpaceOnUse" gradientTransform="translate(1299.69 25.6036) scale(1049.8 1046.33)">
<stop stop-color="#D3CEE8"/>
<stop offset="0.3641" stop-color="#F3A3C0"/>
<stop offset="0.5422" stop-color="#CF86B6"/>
<stop offset="0.6455" stop-color="#BD79B1"/>
<stop offset="1" stop-color="#5464AC"/>
</radialGradient>
<clipPath id="clip0_38_483">
<rect width="1854" height="889" fill="white"/>
</clipPath>
</defs>
</svg>
