<svg width="1854" height="889" viewBox="0 0 1854 889" fill="none" xmlns="http://www.w3.org/2000/svg">
<g clip-path="url(#clip0_38_632)">
<rect width="1854" height="889" fill="#D2B193"/>
<g opacity="0.5" clip-path="url(#clip1_38_632)">
<path d="M1390.5 688.245C1589.46 688.245 1750.75 526.903 1750.75 327.879C1750.75 128.854 1589.46 -32.4873 1390.5 -32.4873C1191.54 -32.4873 1030.25 128.854 1030.25 327.879C1030.25 526.903 1191.54 688.245 1390.5 688.245Z" stroke="white" stroke-width="4.58188"/>
<path d="M1078.52 868.428C1277.48 868.428 1438.77 707.087 1438.77 508.062C1438.77 309.038 1277.48 147.696 1078.52 147.696C879.563 147.696 718.274 309.038 718.274 508.062C718.274 707.087 879.563 868.428 1078.52 868.428Z" stroke="white" stroke-width="4.58188"/>
<path d="M1078.52 1228.79C1277.48 1228.79 1438.77 1067.45 1438.77 868.428C1438.77 669.404 1277.48 508.062 1078.52 508.062C879.563 508.062 718.274 669.404 718.274 868.428C718.274 1067.45 879.563 1228.79 1078.52 1228.79Z" stroke="white" stroke-width="4.58188"/>
<path d="M1390.5 1408.98C1589.46 1408.98 1750.75 1247.64 1750.75 1048.61C1750.75 849.587 1589.46 688.246 1390.5 688.246C1191.54 688.246 1030.25 849.587 1030.25 1048.61C1030.25 1247.64 1191.54 1408.98 1390.5 1408.98Z" stroke="white" stroke-width="4.58188"/>
<path d="M1702.48 1228.79C1901.44 1228.79 2062.73 1067.45 2062.73 868.428C2062.73 669.404 1901.44 508.062 1702.48 508.062C1503.52 508.062 1342.23 669.404 1342.23 868.428C1342.23 1067.45 1503.52 1228.79 1702.48 1228.79Z" stroke="white" stroke-width="4.58188"/>
<path d="M1702.48 868.428C1901.44 868.428 2062.73 707.087 2062.73 508.062C2062.73 309.038 1901.44 147.696 1702.48 147.696C1503.52 147.696 1342.23 309.038 1342.23 508.062C1342.23 707.087 1503.52 868.428 1702.48 868.428Z" stroke="white" stroke-width="4.58188"/>
<path d="M1390.57 1048.61C1589.53 1048.61 1750.82 887.27 1750.82 688.245C1750.82 489.22 1589.53 327.879 1390.57 327.879C1191.61 327.879 1030.32 489.22 1030.32 688.245C1030.32 887.27 1191.61 1048.61 1390.57 1048.61Z" stroke="white" stroke-width="4.58188"/>
<path d="M1390.57 341.394C1398.03 341.394 1404.08 335.343 1404.08 327.88C1404.08 320.417 1398.03 314.366 1390.57 314.366C1383.11 314.366 1377.06 320.417 1377.06 327.88C1377.06 335.343 1383.11 341.394 1390.57 341.394Z" fill="white" stroke="white" stroke-width="4.58188"/>
<path d="M1702.48 161.211C1709.94 161.211 1715.99 155.161 1715.99 147.697C1715.99 140.234 1709.94 134.184 1702.48 134.184C1695.02 134.184 1688.97 140.234 1688.97 147.697C1688.97 155.161 1695.02 161.211 1702.48 161.211Z" fill="white" stroke="white" stroke-width="4.58188"/>
<path d="M1390.57 701.76C1398.03 701.76 1404.08 695.71 1404.08 688.246C1404.08 680.783 1398.03 674.732 1390.57 674.732C1383.11 674.732 1377.06 680.783 1377.06 688.246C1377.06 695.71 1383.11 701.76 1390.57 701.76Z" fill="white" stroke="white" stroke-width="4.58188"/>
<path d="M1702.48 521.577C1709.94 521.577 1715.99 515.527 1715.99 508.064C1715.99 500.6 1709.94 494.55 1702.48 494.55C1695.02 494.55 1688.97 500.6 1688.97 508.064C1688.97 515.527 1695.02 521.577 1702.48 521.577Z" fill="white" stroke="white" stroke-width="4.58188"/>
<path d="M1702.48 881.943C1709.94 881.943 1715.99 875.893 1715.99 868.43C1715.99 860.966 1709.94 854.916 1702.48 854.916C1695.02 854.916 1688.97 860.966 1688.97 868.43C1688.97 875.893 1695.02 881.943 1702.48 881.943Z" fill="white" stroke="white" stroke-width="4.58188"/>
<path d="M1078.52 881.943C1085.98 881.943 1092.03 875.893 1092.03 868.43C1092.03 860.966 1085.98 854.916 1078.52 854.916C1071.06 854.916 1065.01 860.966 1065.01 868.43C1065.01 875.893 1071.06 881.943 1078.52 881.943Z" fill="white" stroke="white" stroke-width="4.58188"/>
<path d="M1078.52 521.577C1085.98 521.577 1092.03 515.527 1092.03 508.064C1092.03 500.6 1085.98 494.55 1078.52 494.55C1071.06 494.55 1065.01 500.6 1065.01 508.064C1065.01 515.527 1071.06 521.577 1078.52 521.577Z" fill="white" stroke="white" stroke-width="4.58188"/>
<path d="M1078.52 161.211C1085.98 161.211 1092.03 155.161 1092.03 147.697C1092.03 140.234 1085.98 134.184 1078.52 134.184C1071.06 134.184 1065.01 140.234 1065.01 147.697C1065.01 155.161 1071.06 161.211 1078.52 161.211Z" fill="white" stroke="white" stroke-width="4.58188"/>
<path d="M763.462 701.76C770.923 701.76 776.972 695.71 776.972 688.246C776.972 680.783 770.923 674.732 763.462 674.732C756.001 674.732 749.953 680.783 749.953 688.246C749.953 695.71 756.001 701.76 763.462 701.76Z" fill="white" stroke="white" stroke-width="4.58188"/>
<path d="M766.525 341.394C773.986 341.394 780.034 335.343 780.034 327.88C780.034 320.417 773.986 314.366 766.525 314.366C759.063 314.366 753.015 320.417 753.015 327.88C753.015 335.343 759.063 341.394 766.525 341.394Z" fill="white" stroke="white" stroke-width="4.58188"/>
</g>
</g>
<defs>
<clipPath id="clip0_38_632">
<rect width="1854" height="889" fill="white"/>
</clipPath>
<clipPath id="clip1_38_632">
<rect width="1441" height="1468.49" fill="white" transform="translate(670 -46)"/>
</clipPath>
</defs>
</svg>
